<svg height="480pt" viewBox="-72 0 480 480.04554" width="480pt" xmlns="http://www.w3.org/2000/svg" xmlns:xlink="http://www.w3.org/1999/xlink"><linearGradient id="a"><stop offset="0" stop-color="#039bca"/><stop offset=".207" stop-color="#3a7ac4"/><stop offset=".598" stop-color="#9c3fb9"/><stop offset=".871" stop-color="#da1ab2"/><stop offset="1" stop-color="#f20baf"/></linearGradient><linearGradient id="b" gradientUnits="userSpaceOnUse" x1="-88.068634" x2="417.515366" xlink:href="#a" y1="440.045537" y2="440.045537"/><linearGradient id="c" gradientUnits="userSpaceOnUse" x1="-88.069006" x2="417.514994" xlink:href="#a" y1="440.044853" y2="440.044853"/><linearGradient id="d" gradientUnits="userSpaceOnUse" x1="-88.068634" x2="417.515366" xlink:href="#a" y1="240.021537" y2="240.021537"/><path d="m184.058594 432.046875h16v16h-16zm0 0" fill="url(#b)"/><path d="m152.046875 432.054688 16-.019532.019531 16-16 .019532zm0 0" fill="url(#c)"/><path d="m177.105469.109375c-2.214844-.1289062-4.519531-.1289062-6.757813-.078125l-2.417968.015625h-2.398438c-2.246094 0-4.550781-.05078125-6.75.070313-70.257812 3.871093-130.660156 51.117187-151.339844 118.371093-20.679687 67.257813 2.746094 140.273438 58.691406 182.949219 13.183594 9.796875 23.425782 23.027344 29.597657 38.246094l8.3125 21.699218v110.664063c0 4.417969 3.582031 8 8 8h112c4.417969 0 8-3.582031 8-8v-111.28125l8.054687-21.039063c6.167969-15.238281 16.410156-28.484374 29.601563-38.289062 55.945312-42.667969 79.378906-115.675781 58.710937-182.929688-20.664062-67.257812-81.050781-114.507812-151.304687-118.398437zm38.945312 399.9375h-16v-32h16zm-64 0v-32h32v32zm-32-32h16v32h-16zm71.878907-32v16h-48v-16c0-13.640625-8.726563-28.074219-19.765626-46.335937-18.632812-30.847657-44.160156-73.089844-44.234374-137.761719-.09375-87.199219 72.152343-127.328125 88-135.105469 15.859374 7.769531 88.082031 48 88 135.074219-.070313 64.671875-25.597657 106.917969-44.230469 137.75-11.046875 18.296875-19.769531 32.730469-19.769531 46.378906zm-116.078126-47.328125c-38.292968-28.949219-60.519531-74.402344-59.847656-122.402344 1.621094-69.152344 49.003906-128.804687 116-146.03125-42.738281 30.226563-68.121094 79.335938-68.074218 131.679688.074218 69.121094 26.929687 113.601562 46.539062 146.015625 9.75 16.136719 17.460938 28.882812 17.460938 38.066406v16h-10.328126l-6.933593-18.121094c-7.242188-17.980469-19.289063-33.617187-34.824219-45.207031zm140.199219 175.328125h-96v-48h96zm44-175.328125c-15.546875 11.597656-27.597656 27.25-34.832031 45.246094l-6.960938 18.082031h-10.328124v-16c0-9.183594 7.707031-21.9375 17.457031-38.074219 19.601562-32.4375 46.457031-76.886718 46.542969-146.007812.042968-52.34375-25.351563-101.445313-68.09375-131.664063 66.996093 17.21875 114.378906 76.871094 116 146.023438.679687 47.992187-21.535157 93.441406-59.816407 122.394531zm0 0" fill="url(#d)"/></svg>