<svg height="474pt" viewBox="-67 0 474 474.99177" width="474pt" xmlns="http://www.w3.org/2000/svg" xmlns:xlink="http://www.w3.org/1999/xlink"><linearGradient id="a"><stop offset="0" stop-color="#fec183"/><stop offset=".173" stop-color="#fea981"/><stop offset=".538" stop-color="#fe6b7b"/><stop offset="1" stop-color="#ff1572"/></linearGradient><linearGradient id="b" gradientUnits="userSpaceOnUse" x1="-83.949336" x2="404.114664" xlink:href="#a" y1="162.991765" y2="162.991765"/><linearGradient id="c" gradientUnits="userSpaceOnUse" x1="-83.949336" x2="404.114664" xlink:href="#a" y1="186.991765" y2="186.991765"/><linearGradient id="d" gradientUnits="userSpaceOnUse" x1="-83.949336" x2="404.114664" xlink:href="#a" y1="170.991765" y2="170.991765"/><linearGradient id="e" gradientUnits="userSpaceOnUse" x1="-83.949336" x2="404.114664" xlink:href="#a" y1="194.991765" y2="194.991765"/><linearGradient id="f" gradientUnits="userSpaceOnUse" x1="-83.949336" x2="404.114664" xlink:href="#a" y1="237.527765" y2="237.527765"/><linearGradient id="g" gradientUnits="userSpaceOnUse" x1="-83.949336" x2="404.114664" xlink:href="#a" y1="199.319765" y2="199.319765"/><path d="m164.050781 154.992188h16v16h-16zm0 0" fill="url(#b)"/><path d="m132.050781 178.992188h16v16h-16zm0 0" fill="url(#c)"/><path d="m100.050781 162.992188h16v16h-16zm0 0" fill="url(#d)"/><path d="m196.050781 178.992188h16v16h-16zm0 0" fill="url(#c)"/><path d="m68.050781 186.992188h16v16h-16zm0 0" fill="url(#e)"/><path d="m1.554688 62.289062c-2.226563 8.433594-.910157 17.410157 3.640624 24.855469 5.804688 9.324219 16.0625 14.933594 27.046876 14.792969 5.480468 0 10.871093-1.355469 15.695312-3.953125l24.960938-13.863281 35.199218 46.917968c-58.96875 16.113282-97.230468 55.625-104 110.984376-.851562 6.15625 1.007813 12.378906 5.097656 17.054687 2.933594 3.171875 6.691407 5.464844 10.855469 6.625v41.289063c0 4.417968 3.582031 8 8 8h8v16c-13.253906 0-24 10.746093-24 24v16c0 13.253906 10.746094 24 24 24v16h-8c-4.417969 0-8 3.582031-8 8v32c0 13.253906 10.746094 24 24 24h256c13.253907 0 24-10.746094 24-24v-32c0-4.417969-3.582031-8-8-8h-8v-16c13.253907 0 24-10.746094 24-24v-16c0-13.253907-10.746093-24-24-24v-16h8c4.417969 0 8-3.582032 8-8v-41.289063c4.160157-1.160156 7.914063-3.453125 10.847657-6.625 4.089843-4.675781 5.949218-10.898437 5.097656-17.054687-8.953125-73.433594-73.304688-119.03125-167.945313-119.03125-15.714843-.042969-31.398437 1.363281-46.855469 4.199218l-38.183593-50.910156 32.878906-18.273438c7.191406-3.820312 12.488281-10.4375 14.648437-18.289062 2.214844-8.433594.898438-17.40625-3.648437-24.847656-9.15625-14.3125-27.84375-19.066406-42.726563-10.871094l-34.402343 19.121094-11.039063-16.570313-13.3125 8.882813 10.320313 15.476562-23.472657 13.035156c-7.222656 3.820313-12.542968 10.460938-14.703124 18.34375zm306.496093 388.703126c0 4.417968-3.582031 8-8 8h-256c-4.417969 0-8-3.582032-8-8v-24h272zm-16-40h-240v-16h240zm24-56v16c0 4.417968-3.582031 8-8 8h-28.6875l10.34375-10.34375-11.3125-11.3125-21.65625 21.65625h-73.375l10.34375-10.34375-11.3125-11.3125-21.65625 21.65625h-17.375l10.34375-10.34375-11.3125-11.3125-21.65625 21.65625h-17.375l10.34375-10.34375-11.3125-11.3125-21.65625 21.65625h-17.375l10.34375-10.34375-11.3125-11.3125-21.65625 21.65625h-4.6875c-4.417969 0-8-3.582032-8-8v-16c0-4.417969 3.582031-8 8-8h149.191407l37.808593 30.246093c2.921875 2.339844 7.078125 2.339844 10 0l37.808594-30.246093h37.191406c4.417969 0 8 3.582031 8 8zm-105.191406-8h34.398437l-17.207031 13.757812zm-158.808594-16v-16h240v16zm65.367188-32c3.386719-9.597657 12.457031-16.011719 22.632812-16.011719s19.246094 6.414062 22.632813 16.011719zm128 0c3.386719-9.597657 12.457031-16.011719 22.632812-16.011719s19.246094 6.414062 22.632813 16.011719zm62.632812 0h-.800781c-3.785156-18.644532-20.175781-32.039063-39.199219-32.039063-19.023437 0-35.414062 13.394531-39.199219 32.039063h-49.601562c-3.785156-18.644532-20.175781-32.039063-39.199219-32.039063-19.023437 0-35.414062 13.394531-39.199219 32.039063h-64.800781v-32h.800781c3.785157 18.640624 20.175782 32.039062 39.199219 32.039062 19.023438 0 35.414063-13.398438 39.199219-32.039062h49.601562c3.785157 18.640624 20.175782 32.039062 39.199219 32.039062 19.023438 0 35.414063-13.398438 39.199219-32.039062h64.800781zm-254.632812-32h45.265625c-3.386719 9.59375-12.457032 16.011718-22.632813 16.011718s-19.246093-6.417968-22.632812-16.011718zm128 0h45.265625c-3.386719 9.59375-12.457032 16.011718-22.632813 16.011718s-19.246093-6.417968-22.632812-16.011718zm142.6875-23.03125c.300781 1.605468-.132813 3.265624-1.183594 4.519531-1.835937 1.761719-4.328125 2.671875-6.871094 2.511719h-288c-2.542969.160156-5.035156-.75-6.871093-2.511719-1.050782-1.253907-1.484376-2.914063-1.183594-4.519531 9.429687-77.394532 84.734375-104.96875 152.054687-104.96875 67.320313 0 142.625 27.574218 152.054688 104.96875zm-307.125-177.433594c1.015625-3.699219 3.542969-6.800782 6.957031-8.542969l71.90625-39.945313c2.457031-1.320312 5.207031-2.003906 8-1.992187 5.394531-.128906 10.46875 2.558594 13.390625 7.097656 2.28125 3.683594 2.972656 8.132813 1.914063 12.335938-.996094 3.65625-3.480469 6.726562-6.851563 8.464843l-.09375.054688-71.90625 39.945312c-7.359375 4.101563-16.636719 1.898438-21.367187-5.074218-2.296876-3.679688-3-8.132813-1.949219-12.34375zm0 0" fill="url(#f)"/><path d="m284.050781 234.992188h16c0-44.761719-58.398437-70.289063-60.847656-71.351563l-6.304687 14.703125c.511718.214844 51.152343 22.320312 51.152343 56.648438zm0 0" fill="url(#g)"/></svg>