<svg height="480pt" viewBox="0 -40 480 480" width="480pt" xmlns="http://www.w3.org/2000/svg" xmlns:xlink="http://www.w3.org/1999/xlink"><linearGradient id="a"><stop offset="0" stop-color="#fec183"/><stop offset=".173" stop-color="#fea981"/><stop offset=".538" stop-color="#fe6b7b"/><stop offset="1" stop-color="#ff1572"/></linearGradient><linearGradient id="b" gradientUnits="userSpaceOnUse" x1="-8" x2="478.624" xlink:href="#a" y1="24" y2="24"/><linearGradient id="c" gradientUnits="userSpaceOnUse" x1="-8" x2="478.624" xlink:href="#a" y1="56" y2="56"/><linearGradient id="d" gradientUnits="userSpaceOnUse" x1="-8" x2="478.624" xlink:href="#a" y1="200" y2="200"/><linearGradient id="e" gradientUnits="userSpaceOnUse" x1="-8" x2="478.624" xlink:href="#a" y1="344" y2="344"/><linearGradient id="f" gradientUnits="userSpaceOnUse" x1="-8" x2="478.624" xlink:href="#a" y1="248" y2="248"/><linearGradient id="g" gradientUnits="userSpaceOnUse" x1="-7.997282" x2="478.626718" xlink:href="#a" y1="254.007648" y2="254.007648"/><linearGradient id="h" gradientUnits="userSpaceOnUse" x1="-7.998564" x2="478.625436" xlink:href="#a" y1="253.996866" y2="253.996866"/><path d="m384 16h64v16h-64zm0 0" fill="url(#b)"/><path d="m408 48h64v16h-64zm0 0" fill="url(#c)"/><path d="m464 16h16v16h-16zm0 0" fill="url(#b)"/><path d="m424 120h-96v-24h80v-16h-19.054688l-13.746093-27.574219c-1.359375-2.726562-4.152344-4.441406-7.199219-4.425781h-8v-40c0-4.417969-3.582031-8-8-8-30.558594 0-47.832031 34.335938-53.496094 48h-170.503906c-3.03125 0-5.804688 1.710938-7.160156 4.425781l-13.785156 27.574219h-19.054688v16h80v24h-102.398438c-27.84375.179688-51.390624 20.640625-55.457031 48.183594l-10.082031 78.800781c-.0390625.335937-.0625.675781-.0625 1.015625v96c0 4.417969 3.582031 8 8 8h80.640625c3.953125 27.535156 27.542969 47.976562 55.359375 47.976562s51.40625-20.441406 55.359375-47.976562h105.28125c3.953125 27.535156 27.542969 47.976562 55.359375 47.976562s51.40625-20.441406 55.359375-47.976562h56.640625c4.417969 0 8-3.582031 8-8v-168c-.035156-30.914062-25.085938-55.964844-56-56zm-40 16h16v72h-16zm-16 0v72h-28.6875l18.34375-18.34375-11.3125-11.3125-29.65625 29.65625h-17.375l18.34375-18.34375-11.3125-11.3125-18.34375 18.34375v-60.6875zm-184-16v-24h128v24zm88 16v72h-16v-72zm72-118.59375v30.59375h-27.878906c5.191406-10.558594 14.71875-25.910156 27.878906-30.59375zm-219.054688 62.59375 8-16h230.109376l8 16zm35.054688 56h80v72h-20.6875l10.34375-10.34375-11.3125-11.3125-21.65625 21.65625h-25.375l34.34375-34.34375-11.3125-11.3125-34.34375 34.34375zm-40 0h24v72h-24zm-94.007812 34.351562c2.929687-19.648437 19.742187-34.230468 39.609374-34.351562h6.398438v42.585938l-49.601562 19.8125zm-5.914063 46.234376 62.890625-25.152344c3.039062-1.214844 5.03125-4.160156 5.03125-7.433594v-48h16v72h-16c-1.015625 0-2.023438.191406-2.96875.566406l-67.367188 26.953125zm-4.078125 71.414062h16v16h-16zm128 96c-22.089844 0-40-17.910156-40-40s17.910156-40 40-40 40 17.910156 40 40c-.027344 22.082031-17.917969 39.972656-40 40zm55.359375-48c-3.953125-27.535156-27.542969-47.976562-55.359375-47.976562s-51.40625 20.441406-55.359375 47.976562h-16.191406c4.082031-36.433594 34.890625-63.980469 71.550781-63.980469s67.46875 27.546875 71.550781 63.980469zm160.640625 48c-22.089844 0-40-17.910156-40-40s17.910156-40 40-40 40 17.910156 40 40c-.027344 22.082031-17.917969 39.972656-40 40zm55.359375-48c-3.953125-27.535156-27.542969-47.976562-55.359375-47.976562s-51.40625 20.441406-55.359375 47.976562h-16.191406c4.082031-36.433594 34.890625-63.980469 71.550781-63.980469s67.46875 27.546875 71.550781 63.980469zm48.640625-96h-24v16h24v80h-16.40625c-4.070312-45.347656-42.074219-80.089844-87.601562-80.089844-45.527344 0-83.53125 34.742188-87.601563 80.089844h-40.796875c-4.070312-45.347656-42.074219-80.089844-87.601562-80.089844-45.527344 0-83.53125 34.742188-87.601563 80.089844h-40.390625v-16h24c4.417969 0 8-3.582031 8-8v-32c0-4.417969-3.582031-8-8-8h-24v-18.585938l73.535156-29.414062h374.464844zm0-48v16h-48v-72h8c22.082031.027344 39.972656 17.917969 40 40h-24v16zm0 0" fill="url(#d)"/><path d="m144 320c-13.253906 0-24 10.746094-24 24s10.746094 24 24 24 24-10.746094 24-24-10.746094-24-24-24zm0 32c-4.417969 0-8-3.582031-8-8s3.582031-8 8-8 8 3.582031 8 8-3.582031 8-8 8zm0 0" fill="url(#e)"/><path d="m360 320c-13.253906 0-24 10.746094-24 24s10.746094 24 24 24 24-10.746094 24-24-10.746094-24-24-24zm0 32c-4.417969 0-8-3.582031-8-8s3.582031-8 8-8 8 3.582031 8 8-3.582031 8-8 8zm0 0" fill="url(#e)"/><path d="m408 240h16v16h-16zm0 0" fill="url(#f)"/><path d="m210.34375 258.347656 20.003906-20.003906 11.3125 11.316406-20 20zm0 0" fill="url(#g)"/><path d="m258.34375 258.34375 20-20.003906 11.316406 11.3125-20.003906 20.003906zm0 0" fill="url(#h)"/></svg>