<svg height="480pt" viewBox="-32 0 480 480.00034" width="480pt" xmlns="http://www.w3.org/2000/svg" xmlns:xlink="http://www.w3.org/1999/xlink"><linearGradient id="a"><stop offset="0" stop-color="#039bca"/><stop offset=".207" stop-color="#3a7ac4"/><stop offset=".598" stop-color="#9c3fb9"/><stop offset=".871" stop-color="#da1ab2"/><stop offset="1" stop-color="#f20baf"/></linearGradient><linearGradient id="b" gradientUnits="userSpaceOnUse" x1="-32.008828" x2="449.055172" xlink:href="#a" y1="240.000334" y2="240.000334"/><linearGradient id="c" gradientUnits="userSpaceOnUse" x1="-32.008828" x2="449.055172" xlink:href="#a" y1="356.056334" y2="356.056334"/><linearGradient id="d" gradientUnits="userSpaceOnUse" x1="-32.008828" x2="449.055172" xlink:href="#a" y1="392.000334" y2="392.000334"/><linearGradient id="e" gradientUnits="userSpaceOnUse" x1="-32.008828" x2="449.055172" xlink:href="#a" y1="424.000334" y2="424.000334"/><linearGradient id="f" gradientUnits="userSpaceOnUse" x1="-32.008828" x2="449.055172" xlink:href="#a" y1="176.000334" y2="176.000334"/><linearGradient id="g" gradientUnits="userSpaceOnUse" x1="-32.008828" x2="449.055172" xlink:href="#a" y1="56.000334" y2="56.000334"/><linearGradient id="h" gradientUnits="userSpaceOnUse" x1="-32.008828" x2="449.055172" xlink:href="#a" y1="64.000334" y2="64.000334"/><linearGradient id="i" gradientUnits="userSpaceOnUse" x1="-32.008828" x2="449.055172" xlink:href="#a" y1="120.000334" y2="120.000334"/><linearGradient id="j" gradientUnits="userSpaceOnUse" x1="-32.008828" x2="449.055172" xlink:href="#a" y1="24.000334" y2="24.000334"/><linearGradient id="k" gradientUnits="userSpaceOnUse" x1="-32.008828" x2="449.055172" xlink:href="#a" y1="208.000334" y2="208.000334"/><linearGradient id="l" gradientUnits="userSpaceOnUse" x1="-32.008828" x2="449.055172" xlink:href="#a" y1="80.000334" y2="80.000334"/><path d="m95.992188 480c43.339843-.078125 81.265624-29.160156 92.582031-71l3.417969 63.433594c.230468 4.246094 3.742187 7.574218 8 7.566406h160c4.253906.007812 7.769531-3.320312 8-7.566406l15.574218-288.433594h16.425782c4.417968 0 8-3.582031 8-8v-32c0-4.417969-3.582032-8-8-8h-8v-24c0-4.417969-3.582032-8-8-8h-134.527344l-33.90625-98.601562c-1.347656-3.925782-5.480469-6.167969-9.511719-5.15625l-32 8c-2.148437.535156-3.976563 1.941406-5.050781 3.875-1.078125 1.9375-1.300782 4.230468-.621094 6.339843l27.617188 85.542969h-20c-4.417969 0-8 3.582031-8 8v24h-8c-4.417969 0-8 3.582031-8 8v32c0 4.417969 3.582031 8 8 8h16.421874l8.921876 165.128906c-8.851563-22.519531-25.84375-40.882812-47.609376-51.449218 18.574219-9.609376 30.242188-28.769532 30.265626-49.679688v-16c0-4.417969-3.582032-8-8-8h-24c-23.082032.039062-43.777344 14.21875-52.144532 35.726562-10.542968-13.3125-26.902344-20.667968-43.855468-19.726562v16c20.085937-1.449219 37.621093 13.476562 39.398437 33.535156-49.03125 8.59375-83.351563 53.253906-79.027344 102.84375 4.320313 49.589844 45.847657 87.640625 95.628907 87.621094zm96.445312-296h29.328125l23.242187 72h-48.679687zm46.144531 0h21.457031l24.753907 72h-22.976563zm113.832031 280h-144.847656l-7.773437-144h160.398437zm8.640626-160h-162.128907l-1.734375-32h165.601563zm2.601562-48h-61.953125l-24.742187-72h90.582031zm-177.425781-234.3125 16.585937-4.152344 29.726563 86.464844h-19.75zm-2.238281 98.3125h192v16h-192zm-16 48v-16h224v16zm-32 72h16v8c-.027344 22.082031-17.921876 39.972656-40 40h-1.199219l22.199219-17.75-10-12.496094-26.929688 21.542969c.382812-21.789063 18.136719-39.261719 39.929688-39.296875zm-40 64c44.183593 0 80 35.816406 80 80s-35.816407 80-80 80c-44.183594 0-80-35.816406-80-80 .046874-44.164062 35.835937-79.949219 80-80zm0 0" fill="url(#b)"/><path d="m89.34375 335.886719-1.351562-7.886719-1.320313-7.886719c-33.460937 7.199219-56.675781 37.71875-54.679687 71.886719h16c0-48.273438 39.664062-55.816406 41.351562-56.113281zm0 0" fill="url(#c)"/><path d="m135.992188 384h16v16h-16zm0 0" fill="url(#d)"/><path d="m111.992188 416h16v16h-16zm0 0" fill="url(#e)"/><path d="m95.992188 200c13.253906 0 24-10.746094 24-24s-10.746094-24-24-24c-13.253907 0-24 10.746094-24 24s10.746093 24 24 24zm0-32c4.417968 0 8 3.582031 8 8s-3.582032 8-8 8c-4.417969 0-8-3.582031-8-8s3.582031-8 8-8zm0 0" fill="url(#f)"/><path d="m391.992188 80c13.253906 0 24-10.746094 24-24s-10.746094-24-24-24c-13.253907 0-24 10.746094-24 24s10.746093 24 24 24zm0-32c4.417968 0 8 3.582031 8 8s-3.582032 8-8 8c-4.417969 0-8-3.582031-8-8s3.582031-8 8-8zm0 0" fill="url(#g)"/><path d="m119.992188 88c13.253906 0 24-10.746094 24-24s-10.746094-24-24-24c-13.253907 0-24 10.746094-24 24s10.746093 24 24 24zm0-32c4.417968 0 8 3.582031 8 8s-3.582032 8-8 8c-4.417969 0-8-3.582031-8-8s3.582031-8 8-8zm0 0" fill="url(#h)"/><path d="m287.992188 88c13.253906 0 24-10.746094 24-24s-10.746094-24-24-24c-13.253907 0-24 10.746094-24 24s10.746093 24 24 24zm0-32c4.417968 0 8 3.582031 8 8s-3.582032 8-8 8c-4.417969 0-8-3.582031-8-8s3.582031-8 8-8zm0 0" fill="url(#h)"/><path d="m119.992188 112h16v16h-16zm0 0" fill="url(#i)"/><path d="m327.992188 16h16v16h-16zm0 0" fill="url(#j)"/><path d="m31.992188 200h16v16h-16zm0 0" fill="url(#k)"/><path d="m343.992188 72h16v16h-16zm0 0" fill="url(#l)"/></svg>