<svg height="480pt" viewBox="0 -2 480 480" width="480pt" xmlns="http://www.w3.org/2000/svg" xmlns:xlink="http://www.w3.org/1999/xlink"><linearGradient id="a"><stop offset="0" stop-color="#20d6de"/><stop offset="1" stop-color="#c24ad2"/></linearGradient><linearGradient id="b" gradientUnits="userSpaceOnUse" x1="-8" x2="489.608" xlink:href="#a" y1="268.176" y2="268.176"/><linearGradient id="c" gradientUnits="userSpaceOnUse" x1="-8" x2="489.608" xlink:href="#a" y1="332.176" y2="332.176"/><linearGradient id="d" gradientUnits="userSpaceOnUse" x1="-8" x2="489.608" xlink:href="#a" y1="180.176" y2="180.176"/><linearGradient id="e" gradientUnits="userSpaceOnUse" x1="-8" x2="489.608" xlink:href="#a" y1="164.176" y2="164.176"/><linearGradient id="f" gradientUnits="userSpaceOnUse" x1="-8" x2="489.608" xlink:href="#a" y1="188.176" y2="188.176"/><linearGradient id="g" gradientUnits="userSpaceOnUse" x1="-8" x2="489.608" xlink:href="#a" y1="44.936" y2="44.936"/><linearGradient id="h" gradientUnits="userSpaceOnUse" x1="-8" x2="489.608" xlink:href="#a" y1="52.176" y2="52.176"/><path d="m448 124.175781h-40v-64h-336v64h-40c-17.671875 0-32 14.328125-32 32v288c0 17.671875 14.328125 32 32 32h416c17.671875 0 32-14.328125 32-32v-288c0-17.671875-14.328125-32-32-32zm-360-48h304v48h-16v-32h-272v32h-16zm272 48h-240v-16h240zm104 320c0 8.835938-7.164062 16-16 16h-416c-8.835938 0-16-7.164062-16-16v-288c0-8.835937 7.164062-16 16-16h416c8.835938 0 16 7.164063 16 16zm0 0" fill="url(#b)"/><path d="m32 220.175781v224h416v-224zm400 208h-184v-40c0-4.417969-3.582031-8-8-8s-8 3.582031-8 8v40h-184v-192h184v40c0 4.417969 3.582031 8 8 8s8-3.582031 8-8v-40h184zm0 0" fill="url(#c)"/><path d="m144 252.175781c-44.183594 0-80 35.816407-80 80 0 44.183594 35.816406 80 80 80s80-35.816406 80-80c-.046875-44.164062-35.835938-79.953125-80-80zm47.097656 36.800781-100.257812 78.792969c-4.925782-7.363281-8.261719-15.671875-9.792969-24.394531l91.320313-68.480469c7.054687 3.507813 13.402343 8.28125 18.730468 14.082031zm9.328125 13.023438c3.164063 5.933594 5.367188 12.328125 6.527344 18.953125l-91.320313 68.503906c-5.148437-2.550781-9.933593-5.78125-14.226562-9.601562zm-56.425781-33.824219c3.214844.027344 6.425781.292969 9.601562.800781l-72.984374 54.734376c4.257812-31.761719 31.335937-55.488282 63.382812-55.535157zm0 128c-3.214844-.027343-6.425781-.292969-9.601562-.800781l72.984374-54.734375c-4.257812 31.761719-31.335937 55.488281-63.382812 55.535156zm0 0" fill="url(#c)"/><g fill="url(#d)"><path d="m64 204.175781c13.253906 0 24-10.746093 24-24 0-13.253906-10.746094-24-24-24s-24 10.746094-24 24c0 13.253907 10.746094 24 24 24zm0-32c4.417969 0 8 3.582031 8 8s-3.582031 8-8 8-8-3.582031-8-8 3.582031-8 8-8zm0 0"/><path d="m128 204.175781c13.253906 0 24-10.746093 24-24 0-13.253906-10.746094-24-24-24s-24 10.746094-24 24c0 13.253907 10.746094 24 24 24zm0-32c4.417969 0 8 3.582031 8 8s-3.582031 8-8 8-8-3.582031-8-8 3.582031-8 8-8zm0 0"/><path d="m440 204.175781v-48h-176v48zm-32-32h16v16h-16zm-32 0h16v16h-16zm-32 0h16v16h-16zm-32 0h16v16h-16zm-32 16v-16h16v16zm0 0"/></g><path d="m168 156.175781h32v16h-32zm0 0" fill="url(#e)"/><path d="m216 156.175781h32v16h-32zm0 0" fill="url(#e)"/><path d="m168 180.175781h32v16h-32zm0 0" fill="url(#f)"/><path d="m216 180.175781h32v16h-32zm0 0" fill="url(#f)"/><path d="m418.167969 78.480469 11.230469 11.390625 21.195312-20.902344-24.035156-32.039062 12.578125-12.578126 15.496093 20.664063-5.792968 11.585937 14.320312 7.152344 10.207032-20.417968-32.503907-43.335938-35.421875 35.425781 23.964844 31.957031zm0 0" fill="url(#g)"/><path d="m48 73.121094v-32l11.574219-5.785156-7.148438-14.320313-20.425781 10.214844v32l-11.574219 5.785156 7.148438 14.320313zm0 0" fill="url(#h)"/><path d="m336 412.175781c44.183594 0 80-35.816406 80-80 0-44.183593-35.816406-80-80-80s-80 35.816407-80 80c.046875 44.164063 35.835938 79.953125 80 80zm-42.59375-32.359375 99.019531-77.800781c3.164063 5.933594 5.367188 12.328125 6.527344 18.953125l-91.320313 68.488281c-5.152343-2.5625-9.9375-5.804687-14.226562-9.640625zm42.59375 16.359375c-3.214844-.027343-6.425781-.292969-9.601562-.800781l72.984374-54.734375c-4.257812 31.761719-31.335937 55.488281-63.382812 55.535156zm47.097656-107.199219-100.257812 78.792969c-4.925782-7.363281-8.261719-15.671875-9.792969-24.394531l91.320313-68.480469c7.054687 3.507813 13.402343 8.28125 18.730468 14.082031zm-47.097656-20.800781c3.214844.027344 6.425781.292969 9.601562.800781l-72.984374 54.734376c4.257812-31.761719 31.335937-55.488282 63.382812-55.535157zm0 0" fill="url(#c)"/></svg>