<?xml version="1.0"?>
<svg xmlns="http://www.w3.org/2000/svg" xmlns:xlink="http://www.w3.org/1999/xlink" version="1.1" id="Capa_1" x="0px" y="0px" viewBox="0 0 512 512" style="enable-background:new 0 0 512 512;" xml:space="preserve" width="512px" height="512px" class=""><g><g>
	<path style="fill:#4F5E97" d="M256,401.067c-138.496-80.043-127.829-250.112-127.829-250.112   C224.085,170.923,256,110.933,256,110.933s31.915,59.989,127.829,40.021C383.829,150.955,394.496,321.024,256,401.067z" data-original="#527F72" class="active-path" data-old_color="#384A90"/>
	<g>
		<path style="fill:#E4C05C" d="M102.4,234.667c4.713,0,8.533-3.82,8.533-8.533s-3.821-8.533-8.533-8.533H8.533    C3.821,217.6,0,221.421,0,226.133s3.821,8.533,8.533,8.533H102.4z" data-original="#E4C05C" class=""/>
		<path style="fill:#E4C05C" d="M110.933,268.8c4.713,0,8.533-3.821,8.533-8.533c0-4.713-3.821-8.533-8.533-8.533H17.067    c-4.713,0-8.533,3.82-8.533,8.533c0,4.713,3.821,8.533,8.533,8.533H110.933z" data-original="#E4C05C" class=""/>
		<path style="fill:#E4C05C" d="M128,294.4c0-4.713-3.821-8.533-8.533-8.533H25.6c-4.713,0-8.533,3.821-8.533,8.533    s3.821,8.533,8.533,8.533h93.867C124.179,302.933,128,299.113,128,294.4z" data-original="#E4C05C" class=""/>
		<path style="fill:#E4C05C" d="M136.533,320H42.667c-4.713,0-8.533,3.82-8.533,8.533s3.821,8.533,8.533,8.533h93.867    c4.713,0,8.533-3.82,8.533-8.533S141.246,320,136.533,320z" data-original="#E4C05C" class=""/>
		<path style="fill:#E4C05C" d="M503.467,217.6H409.6c-4.713,0-8.533,3.821-8.533,8.533s3.821,8.533,8.533,8.533h93.867    c4.713,0,8.533-3.82,8.533-8.533S508.18,217.6,503.467,217.6z" data-original="#E4C05C" class=""/>
		<path style="fill:#E4C05C" d="M494.933,251.733h-93.867c-4.713,0-8.533,3.82-8.533,8.533c0,4.713,3.82,8.533,8.533,8.533h93.867    c4.713,0,8.533-3.821,8.533-8.533C503.467,255.554,499.646,251.733,494.933,251.733z" data-original="#E4C05C" class=""/>
		<path style="fill:#E4C05C" d="M486.4,285.867h-93.867c-4.713,0-8.533,3.821-8.533,8.533s3.82,8.533,8.533,8.533H486.4    c4.713,0,8.533-3.82,8.533-8.533S491.113,285.867,486.4,285.867z" data-original="#E4C05C" class=""/>
		<path style="fill:#E4C05C" d="M469.333,320h-93.867c-4.713,0-8.533,3.82-8.533,8.533s3.821,8.533,8.533,8.533h93.867    c4.713,0,8.533-3.82,8.533-8.533S474.046,320,469.333,320z" data-original="#E4C05C" class=""/>
		<polygon style="fill:#E4C05C" points="256,183.467 274.458,222.797 315.733,229.103 285.867,259.712 292.915,302.933 256,282.53     219.085,302.933 226.133,259.712 196.267,229.103 237.542,222.797   " data-original="#E4C05C" class=""/>
	</g>
</g></g> </svg>
