<?xml version="1.0" encoding="utf-8"?>
<!-- Generator: Adobe Illustrator 17.0.0, SVG Export Plug-In . SVG Version: 6.00 Build 0)  -->
<!DOCTYPE svg PUBLIC "-//W3C//DTD SVG 1.1//EN" "http://www.w3.org/Graphics/SVG/1.1/DTD/svg11.dtd">
<svg version="1.1" id="Calque_1" xmlns="http://www.w3.org/2000/svg" xmlns:xlink="http://www.w3.org/1999/xlink" x="0px" y="0px"
	 width="479px" height="479px" viewBox="0 0 479 479" enable-background="new 0 0 479 479" xml:space="preserve">
<linearGradient id="SVGID_1_" gradientUnits="userSpaceOnUse" x1="286.1349" y1="-265.3756" x2="759.4036" y2="-265.3756" gradientTransform="matrix(0.8443 0.533 0.533 -0.8443 -150.6983 -127.8494)">
	<stop  offset="0" style="stop-color:#00A2CC"/>
	<stop  offset="1" style="stop-color:#2B32B2"/>
</linearGradient>
<path fill="url(#SVGID_1_)" d="M53.623,266.426c-3.796-2.396-8.816-1.261-11.212,2.534L7.7,323.946
	c-2.396,3.796-1.261,8.816,2.534,11.212s8.816,1.261,11.212-2.534l34.711-54.986C58.554,273.843,57.419,268.822,53.623,266.426z"/>
<linearGradient id="SVGID_2_" gradientUnits="userSpaceOnUse" x1="286.1349" y1="-289.7969" x2="759.4036" y2="-289.7969" gradientTransform="matrix(0.8443 0.533 0.533 -0.8443 -150.6983 -127.8494)">
	<stop  offset="0" style="stop-color:#00A2CC"/>
	<stop  offset="1" style="stop-color:#2B32B2"/>
</linearGradient>
<path fill="url(#SVGID_2_)" d="M77.507,319.952c-3.796-2.396-8.816-1.261-11.212,2.534l-26.033,41.239
	c-2.396,3.796-1.261,8.816,2.534,11.212s8.816,1.261,11.212-2.534l26.033-41.239C82.438,327.369,81.303,322.348,77.507,319.952z"/>
<linearGradient id="SVGID_3_" gradientUnits="userSpaceOnUse" x1="286.1349" y1="-265.3756" x2="759.4036" y2="-265.3756" gradientTransform="matrix(0.8443 0.533 0.533 -0.8443 -150.6983 -127.8494)">
	<stop  offset="0" style="stop-color:#00A2CC"/>
	<stop  offset="1" style="stop-color:#2B32B2"/>
</linearGradient>
<path fill="url(#SVGID_3_)" d="M273.566,405.27c-3.796-2.396-8.816-1.261-11.212,2.534l-34.711,54.986
	c-2.396,3.796-1.261,8.816,2.534,11.212s8.816,1.261,11.212-2.534l34.711-54.986C278.497,412.686,277.362,407.666,273.566,405.27z"
	/>
<linearGradient id="SVGID_4_" gradientUnits="userSpaceOnUse" x1="286.1349" y1="-289.7969" x2="759.4036" y2="-289.7969" gradientTransform="matrix(0.8443 0.533 0.533 -0.8443 -150.6983 -127.8494)">
	<stop  offset="0" style="stop-color:#00A2CC"/>
	<stop  offset="1" style="stop-color:#2B32B2"/>
</linearGradient>
<path fill="url(#SVGID_4_)" d="M214.972,406.729c-3.796-2.396-8.816-1.261-11.212,2.534l-26.033,41.239
	c-2.396,3.796-1.261,8.816,2.534,11.212c3.796,2.396,8.816,1.261,11.212-2.534l26.033-41.239
	C219.902,414.146,218.767,409.126,214.972,406.729z"/>
<linearGradient id="SVGID_5_" gradientUnits="userSpaceOnUse" x1="-3.7529" y1="88.2316" x2="468.8017" y2="88.2316" gradientTransform="matrix(0.8456 0.5338 -0.5338 0.8456 147.2421 -57.5702)">
	<stop  offset="0" style="stop-color:#00A2CC"/>
	<stop  offset="1" style="stop-color:#2B32B2"/>
</linearGradient>
<path fill="url(#SVGID_5_)" d="M267.727,170.891c18.979,11.981,44.078,6.31,56.06-12.672c11.981-18.979,6.307-44.08-12.672-56.06
	c-18.982-11.983-44.08-6.307-56.06,12.672C243.099,133.815,248.768,158.894,267.727,170.891z M302.438,115.905
	c11.387,7.188,14.791,22.249,7.603,33.636c-7.19,11.391-22.249,14.791-33.636,7.603c-11.39-7.19-14.794-22.246-7.603-33.636
	C275.99,112.121,291.048,108.714,302.438,115.905z"/>
<linearGradient id="SVGID_6_" gradientUnits="userSpaceOnUse" x1="-3.7529" y1="153.3977" x2="468.8017" y2="153.3977" gradientTransform="matrix(0.8456 0.5338 -0.5338 0.8456 147.2421 -57.5702)">
	<stop  offset="0" style="stop-color:#00A2CC"/>
	<stop  offset="1" style="stop-color:#2B32B2"/>
</linearGradient>
<path fill="url(#SVGID_6_)" d="M352.581,173.513l20.393-32.305c0.797-1.271,1.233-2.742,1.256-4.243l1.419-124.063
	c-0.138-2.748-1.602-5.254-3.928-6.722c-2.326-1.468-5.221-1.714-7.758-0.655L252.574,60.166c-1.357,0.655-2.504,1.677-3.317,2.942
	l-20.393,32.306l-104.792,46.745c-1.466,0.656-2.705,1.728-3.561,3.084l-60.744,96.225c-2.396,3.796-1.261,8.816,2.534,11.212
	l48.113,30.372l-13.017,20.62c-2.396,3.796-1.261,8.816,2.534,11.212l6.873,4.339l-13.017,20.62
	c-2.396,3.796-1.261,8.816,2.534,11.212l82.479,52.066c3.796,2.396,8.816,1.261,11.212-2.534l13.017-20.62l6.873,4.339
	c3.796,2.396,8.816,1.261,11.212-2.534l13.017-20.62l48.113,30.372c3.796,2.396,8.816,1.261,11.212-2.534l60.744-96.225
	c0.853-1.358,1.287-2.938,1.252-4.541L352.581,173.513z M358.681,74.512l-43.068-27.188l43.628-21.402L358.681,74.512z
	 M261.774,73.733l36.7-18.003l59.99,37.87L358,134.477l-128.937,204.25l-27.493-17.355l73.761-116.845
	c2.396-3.796,1.261-8.816-2.534-11.212l-27.493-17.355c-3.796-2.396-8.816-1.261-11.212,2.534L160.33,295.338l-27.493-17.355
	L261.774,73.733z M187.823,312.694l-13.746-8.678l69.422-109.972l13.746,8.678L187.823,312.694z M132.954,155.984l80.289-35.826
	l-94.152,149.147l-13.746-8.678l39.05-61.859c2.396-3.796,1.261-8.816-2.534-11.212c-3.796-2.396-8.816-1.261-11.212,2.534
	l-39.05,61.859l-13.746-8.678L132.954,155.984z M180.605,385.035l-68.732-43.389l8.678-13.746l68.732,43.389L180.605,385.035z
	 M211.707,366.22l-96.225-60.744l8.678-13.746l96.225,60.744L211.707,366.22z M284.049,373.438l-13.746-8.678l39.05-61.859
	c2.396-3.796,1.261-8.816-2.534-11.212s-8.816-1.261-11.212,2.534l-39.05,61.859l-13.746-8.678l94.152-149.147l2.19,87.892
	L284.049,373.438z"/>
</svg>
