<svg height="480pt" viewBox="0 -28 480 480" width="480pt" xmlns="http://www.w3.org/2000/svg" xmlns:xlink="http://www.w3.org/1999/xlink"><linearGradient id="a"><stop offset="0" stop-color="#20d6de"/><stop offset="1" stop-color="#c24ad2"/></linearGradient><linearGradient id="b" gradientUnits="userSpaceOnUse" x1="-8" x2="489.608" xlink:href="#a" y1="212" y2="212"/><linearGradient id="c" gradientUnits="userSpaceOnUse" x1="-8" x2="489.608" xlink:href="#a" y1="180" y2="180"/><linearGradient id="d" gradientUnits="userSpaceOnUse" x1="-8" x2="489.608" xlink:href="#a" y1="308" y2="308"/><linearGradient id="e" gradientUnits="userSpaceOnUse" x1="-8" x2="489.608" xlink:href="#a" y1="352" y2="352"/><path d="m392 0h-304c-48.578125.0585938-87.9414062 39.421875-88 88v72h80v264h320v-264h80v-72c-.058594-48.578125-39.421875-87.9414062-88-88zm-96.550781 16c-2.648438 28.933594-26.410157 51.375-55.449219 52.367188-29.039062-.992188-52.800781-23.433594-55.449219-52.367188zm-279.449219 72c.042969-36.652344 27.582031-67.4375 64-71.550781v95.550781h-64zm0 56v-16h64v16zm368 264h-288v-16h288zm0-32h-288v-360h72.390625c2.789063 37.789062 33.730469 67.332031 71.609375 68.367188 37.878906-1.035157 68.820312-30.578126 71.609375-68.367188h72.390625zm80-232h-64v-16h64zm-64-32v-95.550781c36.417969 4.113281 63.957031 34.898437 64 71.550781v24zm0 0" fill="url(#b)"/><path d="m176 192h40v16h-40v16h56v-88h-56zm16-40h24v24h-24zm0 0" fill="url(#c)"/><path d="m248 224h56v-88h-56zm16-72h24v56h-24zm0 0" fill="url(#c)"/><path d="m128 256h-16v104h80v-16h-64zm0 0" fill="url(#d)"/><path d="m208 344h16v16h-16zm0 0" fill="url(#e)"/></svg>