<svg height="480pt" viewBox="0 0 480 480.09831" width="480pt" xmlns="http://www.w3.org/2000/svg" xmlns:xlink="http://www.w3.org/1999/xlink"><linearGradient id="a"><stop offset="0" stop-color="#4761ac"/><stop offset="1" stop-color="#54c2ef"/></linearGradient><linearGradient id="b" gradientUnits="userSpaceOnUse" x1="-7.950845" x2="481.097155" xlink:href="#a" y1="240" y2="240"/><linearGradient id="c" gradientUnits="userSpaceOnUse" x1="-7.950845" x2="481.097155" xlink:href="#a" y1="328" y2="328"/><linearGradient id="d" gradientUnits="userSpaceOnUse" x1="-7.950845" x2="481.097155" xlink:href="#a" y1="276" y2="276"/><linearGradient id="e" gradientUnits="userSpaceOnUse" x1="-7.950845" x2="481.097155" xlink:href="#a" y1="184" y2="184"/><linearGradient id="f" gradientUnits="userSpaceOnUse" x1="-7.950845" x2="481.097155" xlink:href="#a" y1="216" y2="216"/><linearGradient id="g" gradientUnits="userSpaceOnUse" x1="-7.950845" x2="481.097155" xlink:href="#a" y1="248" y2="248"/><path d="m16.050781 416h124.6875l-50.34375 50.34375c-2.082031 2.007812-2.914062 4.984375-2.183593 7.78125.734374 2.796875 2.917968 4.980469 5.714843 5.710938 2.796875.734374 5.769531-.101563 7.78125-2.179688l61.652344-61.65625h29.410156c3.882813 23.085938 23.871094 39.992188 47.28125 39.992188 23.410157 0 43.394531-16.90625 47.277344-39.992188h29.410156l61.65625 61.65625c3.136719 3.03125 8.128907 2.988281 11.214844-.097656 3.085937-3.085938 3.128906-8.074219.097656-11.214844l-50.347656-50.34375h124.691406v-256h16v-48h-93.601562l-123.199219-82.152344c.511719-1.90625.78125-3.871094.800781-5.847656 0-13.253906-10.746093-24-24-24-13.257812 0-24 10.746094-24 24 .019531 1.976562.285157 3.941406.796875 5.847656l-123.199218 82.152344h-93.5976568v48h15.9999998zm224 24c-14.589843-.023438-27.324219-9.882812-30.992187-24h61.972656c-3.664062 14.117188-16.398438 23.980469-30.980469 24zm208-40h-416v-240h416zm-208-384c4.417969 0 8 3.582031 8 8s-3.582031 8-8 8-8-3.582031-8-8 3.582031-8 8-8zm-14.304687 27.152344c8.441406 6.464844 20.167968 6.464844 28.605468 0l103.296876 68.847656h-235.199219zm-209.695313 84.847656h448v16h-448zm0 0" fill="url(#b)"/><path d="m376.050781 384c30.925781 0 56-25.070312 56-56s-25.074219-56-56-56c-30.929687 0-56 25.070312-56 56 .035157 30.914062 25.085938 55.964844 56 56zm0-96c22.078125.027344 39.972657 17.917969 40 40-.03125 5.902344-1.382812 11.726562-3.953125 17.039062l-28.046875-21.039062v-20c0-4.417969-3.582031-8-8-8s-8 3.582031-8 8v28l34.398438 25.808594c-13.308594 11.796875-32.816407 13.367187-47.84375 3.855468-15.027344-9.515624-21.949219-27.820312-16.976563-44.894531 4.96875-17.078125 20.636719-28.808593 38.421875-28.769531zm0 0" fill="url(#c)"/><path d="m296.050781 352h-232v-60.6875l22.980469-22.976562 41.019531 57.433593 42.535157-59.5625 46.632812 23.320313 60.039062-51.457032-10.417968-12.140624-51.964844 44.542968-49.363281-24.679687-37.460938 52.4375-38.984375-54.566407-25.015625 25.023438v-84.6875h-16v184h248zm0 0" fill="url(#d)"/><path d="m320.050781 176h112v16h-112zm0 0" fill="url(#e)"/><path d="m320.050781 208h32v16h-32zm0 0" fill="url(#f)"/><path d="m368.050781 208h32v16h-32zm0 0" fill="url(#f)"/><path d="m320.050781 240h64v16h-64zm0 0" fill="url(#g)"/></svg>