<svg height="504pt" viewBox="0 -92 504.23794 504" width="504pt" xmlns="http://www.w3.org/2000/svg"><path d="m503.839844 168.644531c1.953125 8.574219-3.503906 17.191407-12.070313 19.128907l-436.9375 98.832031c-8.582031 1.941406-17.191406-3.488281-19.140625-12.082031l-35.296875-156.03125c-1.945312-8.59375 3.503907-17.191407 12.070313-19.144532l436.929687-98.832031c8.589844-1.933594 17.199219 3.496094 19.144531 12.082031zm0 0" fill="#f6bb42"/><path d="m491.769531 187.765625c8.566407-1.929687 14.023438-10.546875 12.070313-19.128906l-35.300782-156.046875c-1.9375-8.585938-10.546874-14.007813-19.144531-12.082032l-85.824219 19.417969 42.359376 187.246094zm0 0" fill="#da4453"/><path d="m369.984375 47.1875c-2.160156.488281-4.335937-.855469-4.832031-3.007812-.480469-2.160157.824218-4.296876 2.976562-4.777344l.082032-.015625c2.160156-.488281 4.3125.867187 4.796874 3.007812.488282 2.160157-.871093 4.304688-3.023437 4.792969zm0 0" fill="#da4453"/><path d="m375.289062 70.589844c-2.160156.496094-4.34375-.851563-4.832031-3-.480469-2.167969.839844-4.289063 2.992188-4.777344l.082031-.015625c2.152344-.488281 4.292969.855469 4.78125 3.015625.480469 2.152344-.878906 4.296875-3.023438 4.777344zm0 0" fill="#da4453"/><path d="m380.578125 94.003906c-2.160156.488282-4.328125-.855468-4.816406-3.007812-.503907-2.160156.824219-4.289063 2.96875-4.777344l.085937-.015625c2.152344-.488281 4.289063.855469 4.777344 3.015625.488281 2.152344-.871094 4.304688-3.015625 4.785156zm0 0" fill="#da4453"/><path d="m385.867188 117.421875c-2.152344.484375-4.328126-.859375-4.816407-3.019531-.496093-2.15625.832031-4.285156 2.976563-4.765625l.085937-.023438c2.152344-.480469 4.289063.847657 4.785157 3.015625.480468 2.160156-.878907 4.296875-3.03125 4.792969zm0 0" fill="#da4453"/><path d="m391.179688 140.820312c-2.171876.496094-4.355469-.855468-4.832032-3.007812-.496094-2.160156.820313-4.28125 2.964844-4.777344l.089844-.015625c2.152344-.488281 4.296875.855469 4.792968 3.015625.476563 2.167969-.875 4.296875-3.015624 4.785156zm0 0" fill="#da4453"/><path d="m396.464844 164.21875c-2.160156.496094-4.34375-.847656-4.832032-3.007812-.488281-2.152344.832032-4.285157 2.984376-4.765626l.074218-.03125c2.160156-.472656 4.300782.863282 4.796875 3.023438.488281 2.160156-.871093 4.300781-3.023437 4.78125zm0 0" fill="#da4453"/><path d="m401.761719 187.636719c-2.160157.488281-4.335938-.863281-4.832031-3.015625-.480469-2.160156.832031-4.289063 2.984374-4.777344l.085938-.015625c2.152344-.496094 4.289062.855469 4.785156 3.023437.488282 2.144532-.871094 4.289063-3.023437 4.785157zm0 0" fill="#da4453"/><path d="m323.953125 98.613281-132.617187 30c-2.167969.480469-4.308594-.875-4.796876-3.03125-.488281-2.160156.863282-4.289062 3.023438-4.785156l132.625-29.992187c2.160156-.496094 4.292969.855468 4.789062 3.015624.488282 2.167969-.863281 4.304688-3.023437 4.792969zm0 0" fill="#edab37"/><path d="m329.257812 122.019531-132.632812 30c-2.152344.488281-4.296875-.863281-4.792969-3.015625-.476562-2.167968.867188-4.289062 3.019531-4.777344l132.628907-30.007812c2.167969-.496094 4.304687.867188 4.792969 3.027344.488281 2.140625-.863282 4.292968-3.015626 4.773437zm0 0" fill="#edab37"/><path d="m334.546875 145.421875-132.617187 30c-2.160157.496094-4.296876-.859375-4.800782-3.019531-.496094-2.15625.863282-4.292969 3.023438-4.789063l132.632812-29.992187c2.160156-.488282 4.296875.863281 4.785156 3.015625.488282 2.152343-.871093 4.3125-3.023437 4.785156zm0 0" fill="#edab37"/><path d="m277.425781 182.949219-70.207031 15.871093c-2.160156.496094-4.289062-.863281-4.785156-3.023437-.488282-2.160156.855468-4.289063 3.015625-4.777344l70.207031-15.886719c2.160156-.488281 4.296875.855469 4.785156 3.023438.488282 2.152344-.847656 4.304688-3.015625 4.792969zm0 0" fill="#edab37"/><path d="m462.1875 165.773438c-2.167969.480468-4.304688-.875-4.792969-3.023438l-28.242187-124.84375c-.488282-2.15625.867187-4.292969 3.015625-4.78125 2.167969-.488281 4.296875.863281 4.785156 3.015625l28.25 124.839844c.488281 2.160156-.867187 4.296875-3.015625 4.792969zm0 0" fill="#d3374e"/><path d="m429.953125 132.042969c-2.167969.496093-4.296875-.863281-4.792969-3.015625l-12.367187-54.625c-.480469-2.15625.863281-4.292969 3.015625-4.773438 2.167968-.488281 4.320312.855469 4.808594 3.015625l12.351562 54.625c.480469 2.152344-.863281 4.285157-3.015625 4.773438zm0 0" fill="#d3374e"/><path d="m492.105469 303.636719c0 8.808593-7.199219 16-16 16h-447.976563c-8.800781-.007813-16-7.191407-16-16.007813v-160.023437c0-8.808594 7.199219-15.992188 16-16h447.96875c8.808594 0 16.007813 7.191406 16.007813 16zm0 0" fill="#ffce54"/><path d="m476.105469 319.636719c8.800781 0 16-7.191407 16-16v-160.03125c0-8.808594-7.199219-16-16.007813-16h-87.992187v192.023437zm0 0" fill="#ed5565"/><path d="m151.121094 180.980469c-4.695313-4.6875-12.296875-4.6875-16.976563 0l-76.367187 76.382812 16.976562 16.976563 76.367188-76.390625c4.671875-4.679688 4.679687-12.28125 0-16.96875zm0 0" fill="#f5f7fa"/><g fill="#ed5565"><path d="m94.402344 220.730469-42.28125-25.613281.007812-11.3125 63.25 15.933593zm0 0"/><path d="m111.097656 237.4375 25.609375 42.269531h11.292969l-15.925781-63.253906zm0 0"/><path d="m388.347656 155.605469c-2.210937 0-4.042968-1.792969-4.042968-4 0-2.210938 1.753906-4 3.953124-4h.089844c2.199219 0 4 1.796875 4 4 0 2.207031-1.792968 4-4 4zm0 0"/><path d="m388.347656 179.613281c-2.210937 0-4.050781-1.792969-4.050781-4 .007813-2.21875 1.761719-4.007812 3.960937-4.007812h.089844c2.199219 0 4 1.789062 4 4.007812 0 2.207031-1.792968 4-4 4zm0 0"/><path d="m388.347656 203.621094c-2.210937 0-4.042968-1.792969-4.042968-4-.007813-2.21875 1.753906-4 3.953124-4h.089844c2.199219 0 4 1.792968 4 4 0 2.199218-1.792968 4-4 4zm0 0"/><path d="m388.347656 227.636719c-2.210937 0-4.042968-1.792969-4.042968-4 0-2.214844 1.753906-4.007813 3.953124-4.007813h.089844c2.199219 0 4 1.785156 4 4.007813 0 2.207031-1.792968 4-4 4zm0 0"/><path d="m388.347656 251.636719c-2.210937 0-4.042968-1.800781-4.042968-4 0-2.207031 1.753906-4 3.953124-4h.089844c2.199219 0 4 1.792969 4 4s-1.792968 4-4 4zm0 0"/><path d="m388.347656 275.636719c-2.210937 0-4.050781-1.792969-4.042968-4 0-2.207031 1.753906-4 3.953124-4h.089844c2.199219 0 4 1.792969 4 4s-1.792968 4-4 4zm0 0"/><path d="m388.347656 299.636719c-2.210937 0-4.042968-1.792969-4.050781-4 0-2.207031 1.761719-4 3.960937-4h.089844c2.199219 0 4 1.792969 4 4 0 2.199219-1.792968 4-4 4zm0 0"/><path d="m64.617188 271.140625c-1.03125 0-2.046876-.390625-2.832032-1.167969-1.558594-1.558594-1.558594-4.097656 0-5.65625l11.3125-11.328125c1.558594-1.550781 4.089844-1.550781 5.648438.007813 1.566406 1.558594 1.566406 4.097656.007812 5.648437l-11.3125 11.328125c-.785156.777344-1.808594 1.160156-2.824218 1.167969zm0 0"/></g><path d="m332.105469 195.621094h-135.976563c-2.207031 0-4-1.792969-4-4 0-2.21875 1.792969-4.007813 4-4.007813l135.976563.007813c2.207031-.007813 4 1.78125 4 4.007812 0 2.199219-1.792969 3.992188-4 3.992188zm0 0" fill="#f6bb42"/><path d="m332.105469 219.628906h-135.984375c-2.199219 0-4-1.792968-4-4 .007812-2.214844 1.800781-4 4-4h135.984375c2.207031 0 4 1.792969 4 4 0 2.207032-1.792969 4-4 4zm0 0" fill="#f6bb42"/><path d="m332.105469 243.636719h-135.976563c-2.207031 0-4-1.792969-4.007812-4 0-2.207031 1.800781-4 4-4h135.984375c2.207031 0 4 1.792969 4 4 0 2.199219-1.792969 4-4 4zm0 0" fill="#f6bb42"/><path d="m268.113281 267.636719h-71.984375c-2.207031 0-4-1.792969-4-4s1.792969-4 4-4h71.984375c2.207031 0 4 1.785156 4 4 0 2.207031-1.792969 4-4 4zm0 0" fill="#f6bb42"/><path d="m452.105469 291.636719c-2.207031 0-4-1.792969-4-4l-.007813-128.03125c.007813-2.210938 1.800782-4 4-4 2.214844 0 4.007813 1.789062 4 4l.007813 128.03125c0 2.207031-1.792969 4-4 4zm0 0" fill="#da4453"/><path d="m428.105469 251.636719c-2.207031 0-4-1.800781-4-4l-.007813-56.015625c0-2.21875 1.800782-4.007813 4-4.007813 2.214844 0 4.007813 1.789063 4.007813 4.015625v56.007813c0 2.199219-1.792969 4-4 4zm0 0" fill="#da4453"/></svg>